<svg width="66" height="61" viewBox="0 0 66 61" fill="none" xmlns="http://www.w3.org/2000/svg">
<g clip-path="url(#clip0_0_96)">
<path d="M66 20.8541C66 31.2196 66 41.5851 66 51.9506C65.9656 52.0191 65.9141 52.0877 65.8969 52.1733C65.0031 57.1933 61.1703 60.4657 56.1172 60.4657C43.1406 60.4829 30.1641 60.4657 17.1875 60.4657C16.9812 60.4657 16.7922 60.4486 16.4656 60.4143C18.9406 57.6388 19.4562 54.4178 19.4391 50.9397C19.3703 41.191 19.4219 31.4595 19.4219 21.7107C19.4219 21.4366 19.4219 21.1625 19.4219 20.8198C19.7656 20.8198 20.0406 20.8198 20.3156 20.8198C35.2859 20.8198 50.2562 20.8198 65.2437 20.8198C65.4844 20.8369 65.7422 20.8541 66 20.8541ZM42.6594 44.9774C42.6594 39.1693 42.6594 33.4126 42.6594 27.6388C41.3703 27.6388 40.1156 27.6388 38.8609 27.6388C38.8609 33.4469 38.8609 39.1865 38.8609 44.9774C40.1156 44.9774 41.3531 44.9774 42.6594 44.9774ZM42.6594 52.7045C42.6594 51.4195 42.6594 50.1688 42.6594 48.918C41.3703 48.918 40.1156 48.918 38.8609 48.918C38.8609 50.203 38.8609 51.4366 38.8609 52.7045C40.1156 52.7045 41.3531 52.7045 42.6594 52.7045Z" fill="#A4A4A4"/>
<path d="M1.86497e-06 0.517133C0.326564 0.517133 0.584377 0.517133 0.842189 0.517133C9.00625 0.517133 17.1703 0.517133 25.3344 0.5C25.85 0.5 26.2109 0.637065 26.5719 0.996859C28.8063 3.25842 31.075 5.48572 33.2922 7.73015C33.6531 8.08995 33.9969 8.24415 34.5125 8.24415C42.1438 8.22701 49.7578 8.22701 57.3891 8.22701C57.6469 8.22701 57.9047 8.22701 58.1969 8.22701C58.1969 11.1396 58.1969 14.0009 58.1969 16.9306C43.9828 16.9306 29.8031 16.9306 15.5203 16.9306C15.5203 17.2733 15.5203 17.5474 15.5203 17.8215C15.5203 29.3349 15.5203 40.8655 15.5203 52.3789C15.5203 55.6513 14.1453 58.1528 11.2234 59.6433C6.13594 62.2476 0.0171894 58.5297 1.86497e-06 52.8244C-0.0171856 35.5543 1.86497e-06 18.267 1.86497e-06 0.996859C1.86497e-06 0.859794 1.86497e-06 0.739863 1.86497e-06 0.517133Z" fill="#A4A4A4"/>
</g>
<defs>
<clipPath id="clip0_0_96">
<rect width="66" height="60" fill="white" transform="translate(0 0.5)"/>
</clipPath>
</defs>
</svg>
