<svg width="86" height="86" viewBox="0 0 86 86" fill="none" xmlns="http://www.w3.org/2000/svg">
<circle cx="43" cy="43" r="42.5" stroke="#D7D7D7"/>
<g clipPath="url(#clip0_245_519)">
<path d="M42.9961 22.9331L42.7076 23.913V52.3453L42.9961 52.6331L56.1938 44.8318L42.9961 22.9331Z" fill="#343434"/>
<path d="M42.9961 22.9331L29.7981 44.8318L42.9961 52.6331V38.8329V22.9331Z" fill="#8C8C8C"/>
<path d="M42.9961 55.1317L42.8335 55.33V65.458L42.9961 65.9326L56.2018 47.3345L42.9961 55.1317Z" fill="#3C3C3B"/>
<path d="M42.9961 65.9326V55.1317L29.7981 47.3345L42.9961 65.9326Z" fill="#8C8C8C"/>
<path d="M42.9961 52.6332L56.1938 44.832L42.9961 38.833V52.6332Z" fill="#141414"/>
<path d="M29.7981 44.832L42.9961 52.6332V38.833L29.7981 44.832Z" fill="#393939"/>
</g>
<defs>
<clipPath id="clip0_245_519">
<rect width="43" height="43" fill="white" transform="translate(21.5 22.9331)"/>
</clipPath>
</defs>
</svg>
