<svg width="41" height="41" viewBox="0 0 41 41" fill="none" xmlns="http://www.w3.org/2000/svg">
<path d="M35.2732 4.56836L22.4688 14.0784L24.8366 8.46761L35.2732 4.56836Z" fill="#E2761B" stroke="#E2761B" stroke-linecap="round" stroke-linejoin="round"/>
<path d="M5.71338 4.56836L18.4149 14.1685L16.1628 8.46761L5.71338 4.56836Z" fill="#E4761B" stroke="#E4761B" stroke-linecap="round" stroke-linejoin="round"/>
<path d="M30.6661 26.6128L27.2559 31.8375L34.5525 33.8451L36.6501 26.7286L30.6661 26.6128Z" fill="#E4761B" stroke="#E4761B" stroke-linecap="round" stroke-linejoin="round"/>
<path d="M4.3623 26.7286L6.44705 33.8451L13.7437 31.8375L10.3334 26.6128L4.3623 26.7286Z" fill="#E4761B" stroke="#E4761B" stroke-linecap="round" stroke-linejoin="round"/>
<path d="M13.3321 17.7847L11.2988 20.8604L18.544 21.1821L18.2866 13.3965L13.3321 17.7847Z" fill="#E4761B" stroke="#E4761B" stroke-linecap="round" stroke-linejoin="round"/>
<path d="M27.6549 17.7845L22.636 13.3062L22.4688 21.1819L29.701 20.8601L27.6549 17.7845Z" fill="#E4761B" stroke="#E4761B" stroke-linecap="round" stroke-linejoin="round"/>
<path d="M13.7437 31.8372L18.0933 29.7139L14.3356 26.7798L13.7437 31.8372Z" fill="#E4761B" stroke="#E4761B" stroke-linecap="round" stroke-linejoin="round"/>
<path d="M22.8936 29.7139L27.2561 31.8372L26.6512 26.7798L22.8936 29.7139Z" fill="#E4761B" stroke="#E4761B" stroke-linecap="round" stroke-linejoin="round"/>
<path d="M27.2561 31.8372L22.8936 29.7139L23.241 32.5579L23.2024 33.7547L27.2561 31.8372Z" fill="#D7C1B3" stroke="#D7C1B3" stroke-linecap="round" stroke-linejoin="round"/>
<path d="M13.7437 31.8372L17.7973 33.7547L17.7716 32.5579L18.0933 29.7139L13.7437 31.8372Z" fill="#D7C1B3" stroke="#D7C1B3" stroke-linecap="round" stroke-linejoin="round"/>
<path d="M17.8619 24.9013L14.2329 23.8332L16.7938 22.6621L17.8619 24.9013Z" fill="#233447" stroke="#233447" stroke-linecap="round" stroke-linejoin="round"/>
<path d="M23.125 24.9013L24.1931 22.6621L26.7669 23.8332L23.125 24.9013Z" fill="#233447" stroke="#233447" stroke-linecap="round" stroke-linejoin="round"/>
<path d="M13.7437 31.8375L14.3614 26.6128L10.3335 26.7286L13.7437 31.8375Z" fill="#CD6116" stroke="#CD6116" stroke-linecap="round" stroke-linejoin="round"/>
<path d="M26.6382 26.6128L27.2559 31.8375L30.6661 26.7286L26.6382 26.6128Z" fill="#CD6116" stroke="#CD6116" stroke-linecap="round" stroke-linejoin="round"/>
<path d="M29.701 20.8604L22.4688 21.1821L23.1379 24.9012L24.206 22.662L26.7798 23.833L29.701 20.8604Z" fill="#CD6116" stroke="#CD6116" stroke-linecap="round" stroke-linejoin="round"/>
<path d="M14.2329 23.833L16.8067 22.662L17.8619 24.9012L18.544 21.1821L11.2988 20.8604L14.2329 23.833Z" fill="#CD6116" stroke="#CD6116" stroke-linecap="round" stroke-linejoin="round"/>
<path d="M11.2988 20.8604L14.3359 26.78L14.2329 23.833L11.2988 20.8604Z" fill="#E4751F" stroke="#E4751F" stroke-linecap="round" stroke-linejoin="round"/>
<path d="M26.7801 23.833L26.6514 26.78L29.7013 20.8604L26.7801 23.833Z" fill="#E4751F" stroke="#E4751F" stroke-linecap="round" stroke-linejoin="round"/>
<path d="M18.5439 21.1821L17.8618 24.9012L18.7112 29.2895L18.9042 23.5114L18.5439 21.1821Z" fill="#E4751F" stroke="#E4751F" stroke-linecap="round" stroke-linejoin="round"/>
<path d="M22.469 21.1821L22.1216 23.4985L22.276 29.2895L23.1382 24.9012L22.469 21.1821Z" fill="#E4751F" stroke="#E4751F" stroke-linecap="round" stroke-linejoin="round"/>
<path d="M23.1381 24.9011L22.2759 29.2894L22.8936 29.714L26.6513 26.78L26.78 23.833L23.1381 24.9011Z" fill="#F6851B" stroke="#F6851B" stroke-linecap="round" stroke-linejoin="round"/>
<path d="M14.2329 23.833L14.3359 26.78L18.0936 29.714L18.7113 29.2894L17.8619 24.9011L14.2329 23.833Z" fill="#F6851B" stroke="#F6851B" stroke-linecap="round" stroke-linejoin="round"/>
<path d="M23.2022 33.7549L23.2408 32.5581L22.9191 32.2749H18.0676L17.7716 32.5581L17.7973 33.7549L13.7437 31.8374L15.1592 32.9956L18.029 34.9903H22.9577L25.8403 32.9956L27.2559 31.8374L23.2022 33.7549Z" fill="#C0AD9E" stroke="#C0AD9E" stroke-linecap="round" stroke-linejoin="round"/>
<path d="M22.8938 29.7142L22.2761 29.2896H18.7114L18.0937 29.7142L17.772 32.5582L18.068 32.2751H22.9195L23.2412 32.5582L22.8938 29.7142Z" fill="#161616" stroke="#161616" stroke-linecap="round" stroke-linejoin="round"/>
<path d="M35.8138 14.6961L36.9077 9.44563L35.2733 4.56836L22.8936 13.7567L27.655 17.7846L34.3854 19.7535L35.8782 18.0163L35.2347 17.553L36.2642 16.6136L35.4664 15.9959L36.4959 15.2109L35.8138 14.6961Z" fill="#763D16" stroke="#763D16" stroke-linecap="round" stroke-linejoin="round"/>
<path d="M4.09229 9.44563L5.18613 14.6961L4.49122 15.2109L5.52072 15.9959L4.73573 16.6136L5.76523 17.553L5.12179 18.0163L6.6017 19.7535L13.3321 17.7846L18.0935 13.7567L5.71375 4.56836L4.09229 9.44563Z" fill="#763D16" stroke="#763D16" stroke-linecap="round" stroke-linejoin="round"/>
<path d="M34.3855 19.7536L27.6551 17.7847L29.7013 20.8603L26.6514 26.78L30.6664 26.7285H36.6504L34.3855 19.7536Z" fill="#F6851B" stroke="#F6851B" stroke-linecap="round" stroke-linejoin="round"/>
<path d="M13.3319 17.7847L6.60148 19.7536L4.3623 26.7285H10.3334L14.3356 26.78L11.2986 20.8603L13.3319 17.7847Z" fill="#F6851B" stroke="#F6851B" stroke-linecap="round" stroke-linejoin="round"/>
<path d="M22.4688 21.1821L22.8935 13.7569L24.8495 8.46777H16.1631L18.0934 13.7569L18.5438 21.1821L18.6982 23.5243L18.7111 29.2895H22.2758L22.3015 23.5243L22.4688 21.1821Z" fill="#F6851B" stroke="#F6851B" stroke-linecap="round" stroke-linejoin="round"/>
</svg>
