<svg width="22" height="21" viewBox="0 0 22 21" fill="none" xmlns="http://www.w3.org/2000/svg">
<g opacity="0.6" clipPath="url(#clip0_220_289)">
<path d="M15.6359 10.7835C15.6429 10.6474 15.65 10.5567 15.65 10.4735C15.65 8.99903 15.657 7.52456 15.65 6.05008C15.65 5.16539 15.129 4.60584 14.3124 4.59828C12.7495 4.59072 11.1936 4.59828 9.63076 4.59072C8.67332 4.58316 7.89188 3.94043 7.68772 3.00282C7.4202 1.77786 8.25092 0.537787 9.4266 0.522664C11.6653 0.492419 13.9111 0.469734 16.1498 0.530226C17.9591 0.583156 19.4375 2.26936 19.4516 4.22021C19.4727 6.24667 19.4586 8.27314 19.4586 10.3072C19.4586 10.4508 19.4586 10.6021 19.4586 10.7835C20.0288 10.6701 20.5428 10.5643 21.0567 10.4508C21.458 10.3677 21.7396 10.4735 21.9085 10.7911C22.0845 11.1162 22.0282 11.4641 21.7325 11.7816C20.5428 13.0671 19.346 14.3525 18.1492 15.6304C17.7479 16.0614 17.3818 16.0614 16.9876 15.638C15.7837 14.3525 14.5799 13.0595 13.3831 11.7665C13.0944 11.4565 13.0452 11.1389 13.2141 10.8062C13.376 10.4811 13.6647 10.3677 14.0589 10.4508C14.5658 10.5643 15.0797 10.6701 15.6359 10.7835Z" fill="gray"/>
<path d="M2.54857 10.209C1.97833 10.33 1.44329 10.4283 0.922328 10.5493C0.570328 10.6324 0.295768 10.5341 0.105688 10.2014C-0.0703115 9.89141 -0.0210315 9.53602 0.253528 9.24113C1.47145 7.92544 2.68937 6.61731 3.91433 5.31674C4.26633 4.94623 4.64649 4.94623 4.99849 5.3243C6.22345 6.62487 7.44137 7.94056 8.65929 9.24869C8.93385 9.55115 8.97609 9.89141 8.79305 10.209C8.60297 10.5417 8.32137 10.6249 7.96937 10.5417C7.45545 10.4207 6.93449 10.3224 6.37833 10.209C6.37129 10.3527 6.35721 10.4661 6.35721 10.5871C6.35721 12.0237 6.35721 13.4604 6.35721 14.8971C6.35721 15.8498 6.87113 16.3943 7.75817 16.3943C9.30697 16.4018 10.8558 16.3867 12.4046 16.4018C13.3338 16.4094 14.1153 17.0597 14.3194 17.9746C14.594 19.1995 13.7633 20.4472 12.5876 20.4623C10.3489 20.5001 8.10313 20.5152 5.86441 20.4547C4.05513 20.4094 2.56969 18.7156 2.54857 16.7723C2.52745 14.7459 2.54153 12.7194 2.54153 10.6854C2.54857 10.5493 2.54857 10.398 2.54857 10.209Z" fill="gray"/>
</g>
<defs>
<clipPath id="clip0_220_289">
<rect width="22" height="20" fill="white" transform="translate(0 0.5)"/>
</clipPath>
</defs>
</svg>
