<svg width="12" height="16" viewBox="0 0 12 16" fill="none" xmlns="http://www.w3.org/2000/svg">
<g clipPath="url(#clip0_647_566)">
<path d="M5.99739 11.8844C5.02049 12.6489 4.05721 13.4044 3.09394 14.1556C2.38058 14.7156 1.66721 15.2711 0.953845 15.8311C0.758464 15.9867 0.549453 16.0578 0.308635 15.9467C0.0723607 15.8356 -0.00488281 15.6311 -0.00488281 15.3822C-0.000339079 10.4622 -0.000339079 5.53778 -0.000339079 0.617778C-0.000339079 0.208889 0.208673 0 0.626696 0C4.2117 0 7.79216 0 11.3772 0C11.7816 0 11.9951 0.208889 11.9951 0.604445C11.9951 5.53333 11.9951 10.4578 11.9951 15.3867C11.9951 15.6356 11.9133 15.8356 11.6771 15.9467C11.4408 16.0578 11.2409 15.9822 11.05 15.8311C9.42336 14.5556 7.79671 13.2844 6.17005 12.0133C6.11553 11.9733 6.061 11.9333 5.99739 11.8844ZM1.09924 14.3422C1.15831 14.2978 1.20375 14.2711 1.24464 14.2356C2.67138 13.12 4.10265 12.0044 5.52938 10.8844C5.91106 10.5867 6.09735 10.5911 6.47448 10.8844C7.90576 12.0044 9.33703 13.1289 10.7683 14.2489C10.8047 14.2756 10.8456 14.3022 10.891 14.3289C10.891 9.89778 10.891 5.48444 10.891 1.07111C7.6195 1.07111 4.36165 1.07111 1.09924 1.07111C1.09924 5.49333 1.09924 9.90667 1.09924 14.3422Z" fill="black"/>
</g>
<defs>
<clipPath id="clip0_647_566">
<rect width="12" height="16" fill="white"/>
</clipPath>
</defs>
</svg>
